STARTFONT 2.1
COMMENT GFtoPK 2.3 output from METAFONT output 1994.05.19:0940
COMMENT identifier CMSY
COMMENT codingscheme TeX math symbols
COMMENT fontfacebyte
COMMENT Nr: 15335424
COMMENT Checksum 21222c9a
COMMENT 
COMMENT This file is made by pktobdf using the above specified pk file.
COMMENT 
FONT -metafont-cmsy10-medium-r-normal--10-100-75-75-p-50-metafont-fontspecific
SIZE 10 75 75
FONTBOUNDINGBOX 12 18 -1 -10
STARTPROPERTIES 22
FONT_ASCENT 8
FONT_DESCENT 3
DEFAULT_CHAR 65
FOUNDRY "metafont"
FAMILY_NAME "cmsy10"
WEIGHT_NAME "medium"
SLANT "r"
SETWIDTH_NAME "normal"
ADD_STYLE_NAME ""
PIXEL_SIZE 10
POINT_SIZE 100
RESOLUTION_X 75
RESOLUTION_Y 75
SPACING "P"
AVERAGE_WIDTH 50
CHARSET_REGISTRY "Metafont"
CHARSET_ENCODING "FONTSPECIFIC"
AVG_CAPITAL_WIDTH 13
AVG_LOWERCASE_WIDTH 7
COPYRIGHT "Metafont (public domain)"
FULLNAME "cmsy10"
DEVICE_FONT_NAME "cmsy10"
ENDPROPERTIES
CHARS 128
STARTCHAR Gamma
ENCODING 0
SWIDTH 762 0
DWIDTH 8 0
BBX 5 1 1 2
BITMAP
f8
ENDCHAR
STARTCHAR Delta
ENCODING 1
SWIDTH 286 0
DWIDTH 3 0
BBX 1 1 1 2
BITMAP
80
ENDCHAR
STARTCHAR Theta
ENCODING 2
SWIDTH 762 0
DWIDTH 8 0
BBX 5 5 1 0
BITMAP
88
50
20
50
88
ENDCHAR
STARTCHAR Lamdba
ENCODING 3
SWIDTH 476 0
DWIDTH 5 0
BBX 4 4 0 1
BITMAP
20
f0
f0
20
ENDCHAR
STARTCHAR Xi
ENCODING 4
SWIDTH 762 0
DWIDTH 8 0
BBX 5 5 1 0
BITMAP
20
00
f8
00
20
ENDCHAR
STARTCHAR Pi
ENCODING 5
SWIDTH 572 0
DWIDTH 6 0
BBX 5 5 0 0
BITMAP
20
50
88
50
20
ENDCHAR
STARTCHAR Sigma
ENCODING 6
SWIDTH 762 0
DWIDTH 8 0
BBX 5 7 1 0
BITMAP
20
20
20
f8
20
20
f8
ENDCHAR
STARTCHAR Upsilon
ENCODING 7
SWIDTH 762 0
DWIDTH 8 0
BBX 5 7 1 -2
BITMAP
f8
20
20
f8
20
20
20
ENDCHAR
STARTCHAR Phi
ENCODING 8
SWIDTH 762 0
DWIDTH 8 0
BBX 5 7 1 -1
BITMAP
70
a8
a8
f8
a8
a8
70
ENDCHAR
STARTCHAR Psi
ENCODING 9
SWIDTH 762 0
DWIDTH 8 0
BBX 5 7 1 -1
BITMAP
70
88
88
f8
88
88
70
ENDCHAR
STARTCHAR Omega
ENCODING 10
SWIDTH 762 0
DWIDTH 8 0
BBX 5 7 1 -1
BITMAP
70
d8
d8
a8
d8
d8
70
ENDCHAR
STARTCHAR arrowup
ENCODING 11
SWIDTH 762 0
DWIDTH 8 0
BBX 5 7 1 -1
BITMAP
70
98
98
a8
c8
c8
70
ENDCHAR
STARTCHAR arrowdown
ENCODING 12
SWIDTH 762 0
DWIDTH 8 0
BBX 5 7 1 -1
BITMAP
70
88
88
a8
88
88
70
ENDCHAR
STARTCHAR quotesingle
ENCODING 13
SWIDTH 953 0
DWIDTH 10 0
BBX 7 9 1 -2
BITMAP
38
44
82
82
82
82
82
44
38
ENDCHAR
STARTCHAR exclamdown
ENCODING 14
SWIDTH 476 0
DWIDTH 5 0
BBX 2 5 1 0
BITMAP
c0
c0
c0
c0
c0
ENDCHAR
STARTCHAR questiondown
ENCODING 15
SWIDTH 476 0
DWIDTH 5 0
BBX 2 5 1 0
BITMAP
c0
c0
c0
c0
c0
ENDCHAR
STARTCHAR dotlessi
ENCODING 16
SWIDTH 762 0
DWIDTH 8 0
BBX 5 7 1 -1
BITMAP
88
88
70
00
70
88
88
ENDCHAR
STARTCHAR dotlessj
ENCODING 17
SWIDTH 762 0
DWIDTH 8 0
BBX 5 7 1 -1
BITMAP
f8
00
00
f8
00
00
f8
ENDCHAR
STARTCHAR grave
ENCODING 18
SWIDTH 762 0
DWIDTH 8 0
BBX 5 10 1 -3
BITMAP
78
80
80
80
80
80
78
00
00
f8
ENDCHAR
STARTCHAR acute
ENCODING 19
SWIDTH 762 0
DWIDTH 8 0
BBX 5 10 1 -3
BITMAP
f0
08
08
08
08
08
f0
00
00
f8
ENDCHAR
STARTCHAR caron
ENCODING 20
SWIDTH 762 0
DWIDTH 8 0
BBX 5 10 1 -3
BITMAP
08
10
60
80
40
30
08
00
00
f8
ENDCHAR
STARTCHAR breve
ENCODING 21
SWIDTH 762 0
DWIDTH 8 0
BBX 5 10 1 -3
BITMAP
80
40
30
08
10
60
80
00
00
f8
ENDCHAR
STARTCHAR macron
ENCODING 22
SWIDTH 762 0
DWIDTH 8 0
BBX 5 10 1 -3
BITMAP
08
08
10
e0
10
08
08
00
00
f8
ENDCHAR
STARTCHAR ring
ENCODING 23
SWIDTH 762 0
DWIDTH 8 0
BBX 5 10 1 -3
BITMAP
80
80
40
38
40
80
80
00
00
f8
ENDCHAR
STARTCHAR cedilla
ENCODING 24
SWIDTH 762 0
DWIDTH 8 0
BBX 5 3 1 1
BITMAP
48
a8
90
ENDCHAR
STARTCHAR germandbls
ENCODING 25
SWIDTH 762 0
DWIDTH 8 0
BBX 5 6 1 -1
BITMAP
48
a8
90
48
a8
90
ENDCHAR
STARTCHAR ae
ENCODING 26
SWIDTH 762 0
DWIDTH 8 0
BBX 5 7 1 -1
BITMAP
78
80
80
80
80
80
78
ENDCHAR
STARTCHAR oe
ENCODING 27
SWIDTH 762 0
DWIDTH 8 0
BBX 5 7 1 -1
BITMAP
f0
08
08
08
08
08
f0
ENDCHAR
STARTCHAR oslash
ENCODING 28
SWIDTH 953 0
DWIDTH 10 0
BBX 7 7 1 -1
BITMAP
1e
28
50
a0
50
28
1e
ENDCHAR
STARTCHAR AE
ENCODING 29
SWIDTH 953 0
DWIDTH 10 0
BBX 7 7 1 -1
BITMAP
f0
28
14
0a
14
28
f0
ENDCHAR
STARTCHAR OE
ENCODING 30
SWIDTH 762 0
DWIDTH 8 0
BBX 5 7 1 -1
BITMAP
08
08
10
e0
10
08
08
ENDCHAR
STARTCHAR Oslash
ENCODING 31
SWIDTH 762 0
DWIDTH 8 0
BBX 5 7 1 -1
BITMAP
80
80
40
38
40
80
80
ENDCHAR
STARTCHAR tilde
ENCODING 32
SWIDTH 953 0
DWIDTH 10 0
BBX 7 3 1 1
BITMAP
40
fe
40
ENDCHAR
STARTCHAR exclam
ENCODING 33
SWIDTH 953 0
DWIDTH 10 0
BBX 7 3 1 1
BITMAP
04
fe
04
ENDCHAR
STARTCHAR quotedblright
ENCODING 34
SWIDTH 476 0
DWIDTH 5 0
BBX 3 9 1 -2
BITMAP
40
e0
40
40
40
40
40
40
40
ENDCHAR
STARTCHAR numbersign
ENCODING 35
SWIDTH 476 0
DWIDTH 5 0
BBX 3 9 1 -2
BITMAP
40
40
40
40
40
40
40
e0
40
ENDCHAR
STARTCHAR dollar
ENCODING 36
SWIDTH 953 0
DWIDTH 10 0
BBX 7 3 1 1
BITMAP
44
fe
44
ENDCHAR
STARTCHAR percent
ENCODING 37
SWIDTH 953 0
DWIDTH 10 0
BBX 7 9 1 -2
BITMAP
06
06
0c
08
10
20
60
40
80
ENDCHAR
STARTCHAR ampersand
ENCODING 38
SWIDTH 953 0
DWIDTH 10 0
BBX 7 9 1 -2
BITMAP
80
40
60
20
10
08
0c
06
06
ENDCHAR
STARTCHAR quoteright
ENCODING 39
SWIDTH 762 0
DWIDTH 8 0
BBX 5 6 1 -1
BITMAP
48
a8
90
00
00
f8
ENDCHAR
STARTCHAR parenleft
ENCODING 40
SWIDTH 953 0
DWIDTH 10 0
BBX 6 7 2 -1
BITMAP
20
7c
80
80
40
7c
20
ENDCHAR
STARTCHAR parenright
ENCODING 41
SWIDTH 953 0
DWIDTH 10 0
BBX 6 7 1 -1
BITMAP
10
f8
04
04
08
f8
10
ENDCHAR
STARTCHAR asterisk
ENCODING 42
SWIDTH 572 0
DWIDTH 6 0
BBX 6 8 0 -2
BITMAP
30
48
cc
48
48
48
48
48
ENDCHAR
STARTCHAR plus
ENCODING 43
SWIDTH 572 0
DWIDTH 6 0
BBX 6 8 0 -1
BITMAP
48
48
48
48
48
cc
48
30
ENDCHAR
STARTCHAR comma
ENCODING 44
SWIDTH 953 0
DWIDTH 10 0
BBX 5 7 2 -1
BITMAP
50
70
88
88
88
70
50
ENDCHAR
STARTCHAR hyphen
ENCODING 45
SWIDTH 953 0
DWIDTH 10 0
BBX 7 9 1 -2
BITMAP
c0
c0
60
20
10
08
0c
04
02
ENDCHAR
STARTCHAR period
ENCODING 46
SWIDTH 953 0
DWIDTH 10 0
BBX 7 9 1 -2
BITMAP
02
04
0c
08
10
20
60
c0
c0
ENDCHAR
STARTCHAR slash
ENCODING 47
SWIDTH 762 0
DWIDTH 8 0
BBX 5 4 1 0
BITMAP
48
b0
b0
48
ENDCHAR
STARTCHAR 0
ENCODING 48
SWIDTH 286 0
DWIDTH 3 0
BBX 2 6 0 0
BITMAP
40
40
40
80
80
80
ENDCHAR
STARTCHAR 1
ENCODING 49
SWIDTH 953 0
DWIDTH 10 0
BBX 7 4 1 0
BITMAP
6c
92
92
6c
ENDCHAR
STARTCHAR 2
ENCODING 50
SWIDTH 667 0
DWIDTH 7 0
BBX 4 7 1 -1
BITMAP
70
80
80
f0
80
80
70
ENDCHAR
STARTCHAR 3
ENCODING 51
SWIDTH 667 0
DWIDTH 7 0
BBX 4 7 1 -1
BITMAP
e0
10
10
f0
10
10
e0
ENDCHAR
STARTCHAR 4
ENCODING 52
SWIDTH 953 0
DWIDTH 10 0
BBX 7 7 1 0
BITMAP
10
28
28
44
44
82
fe
ENDCHAR
STARTCHAR 5
ENCODING 53
SWIDTH 953 0
DWIDTH 10 0
BBX 7 7 1 -2
BITMAP
fe
82
44
44
28
28
10
ENDCHAR
STARTCHAR 6
ENCODING 54
SWIDTH 0 0
DWIDTH 0 0
BBX 5 9 1 -2
BITMAP
08
10
10
20
20
20
40
40
80
ENDCHAR
STARTCHAR 7
ENCODING 55
SWIDTH 0 0
DWIDTH 0 0
BBX 1 5 1 0
BITMAP
80
80
80
80
80
ENDCHAR
STARTCHAR 8
ENCODING 56
SWIDTH 572 0
DWIDTH 6 0
BBX 5 7 0 0
BITMAP
88
88
70
50
50
20
20
ENDCHAR
STARTCHAR 9
ENCODING 57
SWIDTH 572 0
DWIDTH 6 0
BBX 3 7 1 0
BITMAP
e0
20
20
e0
20
20
e0
ENDCHAR
STARTCHAR colon
ENCODING 58
SWIDTH 667 0
DWIDTH 7 0
BBX 4 3 1 1
BITMAP
f0
10
10
ENDCHAR
STARTCHAR semicolon
ENCODING 59
SWIDTH 476 0
DWIDTH 5 0
BBX 4 9 0 -1
BITMAP
20
60
b0
b0
d0
d0
d0
60
40
ENDCHAR
STARTCHAR less
ENCODING 60
SWIDTH 667 0
DWIDTH 7 0
BBX 6 7 0 0
BITMAP
70
58
54
58
50
10
ec
ENDCHAR
STARTCHAR equal
ENCODING 61
SWIDTH 667 0
DWIDTH 7 0
BBX 5 7 1 0
BITMAP
60
98
80
58
18
d0
30
ENDCHAR
STARTCHAR greater
ENCODING 62
SWIDTH 762 0
DWIDTH 8 0
BBX 5 5 1 0
BITMAP
f8
20
20
20
20
ENDCHAR
STARTCHAR question
ENCODING 63
SWIDTH 762 0
DWIDTH 8 0
BBX 5 5 1 0
BITMAP
20
20
20
20
f8
ENDCHAR
STARTCHAR at
ENCODING 64
SWIDTH 572 0
DWIDTH 6 0
BBX 3 7 1 0
BITMAP
a0
a0
e0
e0
e0
a0
a0
ENDCHAR
STARTCHAR A
ENCODING 65
SWIDTH 762 0
DWIDTH 8 0
BBX 7 7 1 0
BITMAP
08
18
18
28
38
44
86
ENDCHAR
STARTCHAR B
ENCODING 66
SWIDTH 667 0
DWIDTH 7 0
BBX 6 7 0 0
BITMAP
78
64
78
58
44
44
f8
ENDCHAR
STARTCHAR C
ENCODING 67
SWIDTH 476 0
DWIDTH 5 0
BBX 4 7 0 0
BITMAP
30
50
80
80
80
a0
60
ENDCHAR
STARTCHAR D
ENCODING 68
SWIDTH 762 0
DWIDTH 8 0
BBX 7 7 0 0
BITMAP
7c
92
22
22
24
2c
70
ENDCHAR
STARTCHAR E
ENCODING 69
SWIDTH 476 0
DWIDTH 5 0
BBX 5 7 0 0
BITMAP
38
48
40
30
40
90
60
ENDCHAR
STARTCHAR F
ENCODING 70
SWIDTH 667 0
DWIDTH 7 0
BBX 8 7 0 0
BITMAP
3f
50
10
1c
20
20
c0
ENDCHAR
STARTCHAR G
ENCODING 71
SWIDTH 572 0
DWIDTH 6 0
BBX 4 8 1 -1
BITMAP
30
50
80
90
b0
60
20
c0
ENDCHAR
STARTCHAR H
ENCODING 72
SWIDTH 858 0
DWIDTH 9 0
BBX 7 7 0 0
BITMAP
72
92
12
3c
24
24
46
ENDCHAR
STARTCHAR I
ENCODING 73
SWIDTH 572 0
DWIDTH 6 0
BBX 6 7 0 0
BITMAP
7c
10
20
20
20
20
f0
ENDCHAR
STARTCHAR J
ENCODING 74
SWIDTH 667 0
DWIDTH 7 0
BBX 8 8 0 -1
BITMAP
0f
14
24
08
08
08
90
60
ENDCHAR
STARTCHAR K
ENCODING 75
SWIDTH 762 0
DWIDTH 8 0
BBX 6 7 0 0
BITMAP
6c
30
20
60
60
54
98
ENDCHAR
STARTCHAR L
ENCODING 76
SWIDTH 667 0
DWIDTH 7 0
BBX 5 7 0 0
BITMAP
18
28
20
40
40
48
f8
ENDCHAR
STARTCHAR M
ENCODING 77
SWIDTH 1144 0
DWIDTH 12 0
BBX 10 7 0 0
BITMAP
1040
1040
10c0
2980
2a80
4c80
c0c0
ENDCHAR
STARTCHAR N
ENCODING 78
SWIDTH 858 0
DWIDTH 9 0
BBX 11 8 -1 0
BITMAP
0060
1080
1080
1900
1900
2500
2600
c200
ENDCHAR
STARTCHAR O
ENCODING 79
SWIDTH 762 0
DWIDTH 8 0
BBX 6 7 1 0
BITMAP
38
64
a4
84
88
88
70
ENDCHAR
STARTCHAR P
ENCODING 80
SWIDTH 667 0
DWIDTH 7 0
BBX 6 8 0 -1
BITMAP
78
94
24
28
30
20
40
40
ENDCHAR
STARTCHAR Q
ENCODING 81
SWIDTH 762 0
DWIDTH 8 0
BBX 6 8 1 -1
BITMAP
38
44
84
84
88
70
e0
3c
ENDCHAR
STARTCHAR R
ENCODING 82
SWIDTH 858 0
DWIDTH 9 0
BBX 8 7 0 0
BITMAP
7c
92
22
3c
28
24
47
ENDCHAR
STARTCHAR S
ENCODING 83
SWIDTH 572 0
DWIDTH 6 0
BBX 6 7 0 0
BITMAP
1c
24
20
18
44
84
78
ENDCHAR
STARTCHAR T
ENCODING 84
SWIDTH 572 0
DWIDTH 6 0
BBX 6 7 0 0
BITMAP
7c
90
10
10
20
20
f0
ENDCHAR
STARTCHAR U
ENCODING 85
SWIDTH 572 0
DWIDTH 6 0
BBX 6 7 0 0
BITMAP
c4
48
48
98
90
b0
d8
ENDCHAR
STARTCHAR V
ENCODING 86
SWIDTH 572 0
DWIDTH 6 0
BBX 5 7 0 0
BITMAP
c8
28
28
30
30
60
40
ENDCHAR
STARTCHAR W
ENCODING 87
SWIDTH 953 0
DWIDTH 10 0
BBX 9 7 0 0
BITMAP
8480
4c80
4c80
5500
5500
6600
4600
ENDCHAR
STARTCHAR X
ENCODING 88
SWIDTH 667 0
DWIDTH 7 0
BBX 7 7 0 0
BITMAP
32
12
0c
18
68
88
cc
ENDCHAR
STARTCHAR Y
ENCODING 89
SWIDTH 667 0
DWIDTH 7 0
BBX 6 8 0 -1
BITMAP
6c
14
14
18
18
10
a0
c0
ENDCHAR
STARTCHAR Z
ENCODING 90
SWIDTH 762 0
DWIDTH 8 0
BBX 7 7 0 0
BITMAP
3e
24
08
3c
20
44
f8
ENDCHAR
STARTCHAR bracketleft
ENCODING 91
SWIDTH 667 0
DWIDTH 7 0
BBX 4 7 1 0
BITMAP
90
90
90
90
90
90
60
ENDCHAR
STARTCHAR leftdblquote
ENCODING 92
SWIDTH 667 0
DWIDTH 7 0
BBX 4 7 1 0
BITMAP
60
90
90
90
90
90
90
ENDCHAR
STARTCHAR bracketright
ENCODING 93
SWIDTH 667 0
DWIDTH 7 0
BBX 4 7 1 0
BITMAP
90
90
b0
f0
90
90
60
ENDCHAR
STARTCHAR circumflex
ENCODING 94
SWIDTH 667 0
DWIDTH 7 0
BBX 4 7 1 0
BITMAP
60
60
60
60
90
90
90
ENDCHAR
STARTCHAR dotaccent
ENCODING 95
SWIDTH 667 0
DWIDTH 7 0
BBX 4 7 1 0
BITMAP
90
90
90
60
60
60
60
ENDCHAR
STARTCHAR leftquote
ENCODING 96
SWIDTH 572 0
DWIDTH 6 0
BBX 3 7 1 0
BITMAP
80
80
80
e0
80
80
80
ENDCHAR
STARTCHAR a
ENCODING 97
SWIDTH 572 0
DWIDTH 6 0
BBX 3 7 1 0
BITMAP
20
20
20
e0
20
20
20
ENDCHAR
STARTCHAR b
ENCODING 98
SWIDTH 476 0
DWIDTH 5 0
BBX 3 11 2 -3
BITMAP
80
80
80
80
80
80
80
80
80
80
e0
ENDCHAR
STARTCHAR c
ENCODING 99
SWIDTH 476 0
DWIDTH 5 0
BBX 3 11 -1 -3
BITMAP
20
20
20
20
20
20
20
20
20
20
e0
ENDCHAR
STARTCHAR d
ENCODING 100
SWIDTH 476 0
DWIDTH 5 0
BBX 3 11 2 -3
BITMAP
e0
80
80
80
80
80
80
80
80
80
80
ENDCHAR
STARTCHAR e
ENCODING 101
SWIDTH 476 0
DWIDTH 5 0
BBX 3 11 -1 -3
BITMAP
e0
20
20
20
20
20
20
20
20
20
20
ENDCHAR
STARTCHAR f
ENCODING 102
SWIDTH 476 0
DWIDTH 5 0
BBX 4 11 0 -3
BITMAP
10
20
20
20
20
c0
20
20
20
20
10
ENDCHAR
STARTCHAR g
ENCODING 103
SWIDTH 476 0
DWIDTH 5 0
BBX 4 11 0 -3
BITMAP
c0
20
20
20
20
10
20
20
20
20
c0
ENDCHAR
STARTCHAR h
ENCODING 104
SWIDTH 381 0
DWIDTH 4 0
BBX 2 11 0 -3
BITMAP
40
40
40
80
80
80
80
80
40
40
40
ENDCHAR
STARTCHAR i
ENCODING 105
SWIDTH 381 0
DWIDTH 4 0
BBX 2 11 1 -3
BITMAP
80
80
80
40
40
40
40
40
80
80
80
ENDCHAR
STARTCHAR j
ENCODING 106
SWIDTH 286 0
DWIDTH 3 0
BBX 1 11 1 -3
BITMAP
80
80
80
80
80
80
80
80
80
80
80
ENDCHAR
STARTCHAR k
ENCODING 107
SWIDTH 476 0
DWIDTH 5 0
BBX 4 11 0 -3
BITMAP
90
90
90
90
90
90
90
90
90
90
90
ENDCHAR
STARTCHAR l
ENCODING 108
SWIDTH 476 0
DWIDTH 5 0
BBX 3 11 1 -3
BITMAP
40
e0
40
40
40
40
40
40
40
e0
40
ENDCHAR
STARTCHAR m
ENCODING 109
SWIDTH 572 0
DWIDTH 6 0
BBX 6 9 0 -2
BITMAP
78
cc
48
48
48
48
48
cc
78
ENDCHAR
STARTCHAR n
ENCODING 110
SWIDTH 476 0
DWIDTH 5 0
BBX 2 11 1 -3
BITMAP
80
80
80
80
80
80
40
40
40
40
40
ENDCHAR
STARTCHAR o
ENCODING 111
SWIDTH 286 0
DWIDTH 3 0
BBX 4 7 -1 -1
BITMAP
30
60
40
20
20
60
c0
ENDCHAR
STARTCHAR p
ENCODING 112
SWIDTH 858 0
DWIDTH 9 0
BBX 9 11 0 -10
BITMAP
0080
0100
0100
0200
0200
0400
4400
a800
2800
3000
1000
ENDCHAR
STARTCHAR q
ENCODING 113
SWIDTH 762 0
DWIDTH 8 0
BBX 7 7 0 0
BITMAP
c6
44
44
44
44
44
fe
ENDCHAR
STARTCHAR r
ENCODING 114
SWIDTH 858 0
DWIDTH 9 0
BBX 6 7 1 0
BITMAP
fc
84
48
48
48
30
30
ENDCHAR
STARTCHAR s
ENCODING 115
SWIDTH 381 0
DWIDTH 4 0
BBX 2 9 1 -2
BITMAP
40
40
40
40
40
40
40
c0
80
ENDCHAR
STARTCHAR t
ENCODING 116
SWIDTH 667 0
DWIDTH 7 0
BBX 4 7 1 0
BITMAP
90
90
90
90
90
90
f0
ENDCHAR
STARTCHAR u
ENCODING 117
SWIDTH 667 0
DWIDTH 7 0
BBX 4 7 1 0
BITMAP
f0
90
90
90
90
90
90
ENDCHAR
STARTCHAR v
ENCODING 118
SWIDTH 762 0
DWIDTH 8 0
BBX 6 10 1 -3
BITMAP
fc
80
80
80
80
80
fc
00
00
f8
ENDCHAR
STARTCHAR w
ENCODING 119
SWIDTH 762 0
DWIDTH 8 0
BBX 6 10 0 -3
BITMAP
fc
04
04
04
04
04
7c
00
00
7c
ENDCHAR
STARTCHAR x
ENCODING 120
SWIDTH 476 0
DWIDTH 5 0
BBX 2 9 1 -2
BITMAP
c0
c0
80
c0
c0
c0
40
c0
c0
ENDCHAR
STARTCHAR y
ENCODING 121
SWIDTH 572 0
DWIDTH 6 0
BBX 3 9 1 -2
BITMAP
40
40
40
e0
40
40
40
40
40
ENDCHAR
STARTCHAR z
ENCODING 122
SWIDTH 572 0
DWIDTH 6 0
BBX 3 9 1 -2
BITMAP
40
e0
40
40
00
40
60
e0
40
ENDCHAR
STARTCHAR endash
ENCODING 123
SWIDTH 572 0
DWIDTH 6 0
BBX 4 9 1 -2
BITMAP
f0
a0
a0
a0
a0
a0
a0
a0
a0
ENDCHAR
STARTCHAR emdash
ENCODING 124
SWIDTH 762 0
DWIDTH 8 0
BBX 7 8 0 -1
BITMAP
10
38
38
fe
fe
fe
d6
10
ENDCHAR
STARTCHAR quotedbl
ENCODING 125
SWIDTH 762 0
DWIDTH 8 0
BBX 5 8 1 -1
BITMAP
20
20
50
88
88
50
20
20
ENDCHAR
STARTCHAR hungarumlaut
ENCODING 126
SWIDTH 762 0
DWIDTH 8 0
BBX 5 7 1 0
BITMAP
d8
a8
88
88
88
50
20
ENDCHAR
STARTCHAR dieresis
ENCODING 127
SWIDTH 762 0
DWIDTH 8 0
BBX 5 8 1 -1
BITMAP
20
20
70
f8
f8
f8
a8
20
ENDCHAR
ENDFONT
